<svg xmlns="http://www.w3.org/2000/svg" version="1.1" xmlns:xlink="http://www.w3.org/1999/xlink" xmlns:svgjs="http://svgjs.dev/svgjs" viewBox="0 0 12.919531121002466 9.7412453098065"><g transform="matrix(1,0,0,1,0.933001644485608,7.743243665320891)"><g><path d=" M 0.933 0.5369999999999999 L 1.0065 0.5369999999999999 L 1.0065 0.9299999999999999 Q 0.9375 0.9959999999999999 0.83925 1.0305 Q 0.741 1.065 0.6315000000000001 1.065 Q 0.47550000000000003 1.065 0.35025 0.9959999999999999 Q 0.225 0.9269999999999998 0.15375 0.8054999999999999 Q 0.0825 0.6839999999999999 0.0825 0.5324999999999999 Q 0.0825 0.3809999999999999 0.15375 0.25949999999999984 Q 0.225 0.1379999999999999 0.35025 0.06899999999999984 Q 0.47550000000000003 -2.220446049250313e-16 0.633 -2.220446049250313e-16 Q 0.7485 -2.220446049250313e-16 0.8452500000000001 0.03674999999999984 Q 0.9420000000000001 0.0734999999999999 1.0110000000000001 0.1439999999999999 L 0.963 0.19499999999999984 Q 0.897 0.1289999999999999 0.81525 0.0997499999999999 Q 0.7335 0.0704999999999999 0.6345000000000001 0.0704999999999999 Q 0.4995 0.0704999999999999 0.39075 0.13049999999999984 Q 0.28200000000000003 0.1904999999999999 0.2205 0.2962499999999999 Q 0.159 0.4019999999999999 0.159 0.5324999999999999 Q 0.159 0.6614999999999999 0.22125 0.7672499999999999 Q 0.28350000000000003 0.8729999999999999 0.3915 0.9337499999999999 Q 0.4995 0.9944999999999999 0.6345000000000001 0.9944999999999999 Q 0.8145 0.9944999999999999 0.933 0.8984999999999999 L 0.933 0.5369999999999999 M 1.9920153808593752 0.7619999999999999 L 1.3830153808593753 0.7619999999999999 L 1.2495153808593753 1.0574999999999999 L 1.1670153808593753 1.0574999999999999 L 1.6500153808593752 0.00749999999999984 L 1.7265153808593752 0.00749999999999984 L 2.2095153808593753 1.0574999999999999 L 2.1270153808593752 1.0574999999999999 L 1.9920153808593752 0.7619999999999999 M 1.9635153808593753 0.6974999999999999 L 1.6875153808593752 0.09149999999999991 L 1.4130153808593753 0.6974999999999999 L 1.9635153808593753 0.6974999999999999 M 2.456291015625 1.0252499999999998 Q 2.352041015625 0.9854999999999998 2.293541015625 0.9224999999999999 L 2.328041015625 0.8654999999999999 Q 2.383541015625 0.9239999999999999 2.477291015625 0.9607499999999999 Q 2.571041015625 0.9974999999999998 2.674541015625 0.9974999999999998 Q 2.824541015625 0.9974999999999998 2.901041015625 0.9404999999999999 Q 2.977541015625 0.8834999999999998 2.977541015625 0.7919999999999998 Q 2.977541015625 0.7214999999999998 2.9370410156249998 0.6794999999999999 Q 2.896541015625 0.6375 2.836541015625 0.6149999999999999 Q 2.776541015625 0.5924999999999998 2.674541015625 0.5684999999999999 Q 2.559041015625 0.5399999999999999 2.489291015625 0.5129999999999999 Q 2.419541015625 0.4859999999999999 2.370791015625 0.42974999999999985 Q 2.322041015625 0.37349999999999983 2.322041015625 0.2789999999999999 Q 2.322041015625 0.2024999999999999 2.362541015625 0.13874999999999982 Q 2.403041015625 0.07499999999999984 2.486291015625 0.03749999999999987 Q 2.569541015625 -2.220446049250313e-16 2.694041015625 -2.220446049250313e-16 Q 2.781041015625 -2.220446049250313e-16 2.865041015625 0.025499999999999856 Q 2.949041015625 0.050999999999999934 3.010541015625 0.09449999999999992 L 2.982041015625 0.15599999999999992 Q 2.919041015625 0.11249999999999982 2.8432910156249998 0.08999999999999986 Q 2.767541015625 0.0674999999999999 2.694041015625 0.0674999999999999 Q 2.548541015625 0.0674999999999999 2.473541015625 0.1259999999999999 Q 2.3985410156249998 0.1844999999999999 2.3985410156249998 0.27749999999999986 Q 2.3985410156249998 0.34799999999999986 2.439041015625 0.3899999999999999 Q 2.479541015625 0.43199999999999983 2.539541015625 0.4544999999999999 Q 2.599541015625 0.47699999999999987 2.7030410156249998 0.5024999999999998 Q 2.818541015625 0.5309999999999999 2.887541015625 0.5579999999999998 Q 2.956541015625 0.5849999999999999 3.005291015625 0.6397499999999998 Q 3.0540410156249997 0.6944999999999999 3.0540410156249997 0.7874999999999999 Q 3.0540410156249997 0.8639999999999999 3.012791015625 0.9269999999999998 Q 2.971541015625 0.9899999999999999 2.886041015625 1.0274999999999999 Q 2.800541015625 1.065 2.676041015625 1.065 Q 2.560541015625 1.065 2.456291015625 1.0252499999999998 M 3.49953955078125 0.0764999999999999 L 3.12153955078125 0.0764999999999999 L 3.12153955078125 0.00749999999999984 L 3.95403955078125 0.00749999999999984 L 3.95403955078125 0.0764999999999999 L 3.57603955078125 0.0764999999999999 L 3.57603955078125 1.0574999999999999 L 3.49953955078125 1.0574999999999999 L 3.49953955078125 0.0764999999999999 M 4.87202197265625 1.0574999999999999 L 4.62152197265625 0.7064999999999999 Q 4.56602197265625 0.7139999999999999 4.51952197265625 0.7139999999999999 L 4.21952197265625 0.7139999999999999 L 4.21952197265625 1.0574999999999999 L 4.14302197265625 1.0574999999999999 L 4.14302197265625 0.00749999999999984 L 4.51952197265625 0.00749999999999984 Q 4.71752197265625 0.00749999999999984 4.83002197265625 0.10124999999999984 Q 4.94252197265625 0.19499999999999984 4.94252197265625 0.3614999999999998 Q 4.94252197265625 0.4859999999999999 4.87877197265625 0.5707499999999999 Q 4.81502197265625 0.6554999999999999 4.69652197265625 0.69 L 4.95902197265625 1.0574999999999999 L 4.87202197265625 1.0574999999999999 M 4.51952197265625 0.6464999999999999 Q 4.68752197265625 0.6464999999999999 4.77602197265625 0.5722499999999999 Q 4.86452197265625 0.4979999999999999 4.86452197265625 0.3614999999999998 Q 4.86452197265625 0.22499999999999987 4.77602197265625 0.15074999999999983 Q 4.68752197265625 0.0764999999999999 4.51952197265625 0.0764999999999999 L 4.21952197265625 0.0764999999999999 L 4.21952197265625 0.6464999999999999 L 4.51952197265625 0.6464999999999999 M 5.38947802734375 0.9952499999999999 Q 5.26497802734375 0.9254999999999999 5.19372802734375 0.8039999999999998 Q 5.12247802734375 0.6824999999999999 5.12247802734375 0.5324999999999999 Q 5.12247802734375 0.38249999999999984 5.19372802734375 0.2609999999999999 Q 5.26497802734375 0.13949999999999985 5.38947802734375 0.06974999999999987 Q 5.51397802734375 -2.220446049250313e-16 5.66847802734375 -2.220446049250313e-16 Q 5.82297802734375 -2.220446049250313e-16 5.94747802734375 0.06899999999999984 Q 6.07197802734375 0.1379999999999999 6.14322802734375 0.25949999999999984 Q 6.21447802734375 0.3809999999999999 6.21447802734375 0.5324999999999999 Q 6.21447802734375 0.6839999999999999 6.14322802734375 0.8054999999999999 Q 6.07197802734375 0.9269999999999998 5.94747802734375 0.9959999999999999 Q 5.82297802734375 1.065 5.66847802734375 1.065 Q 5.51397802734375 1.065 5.38947802734375 0.9952499999999999 M 5.90697802734375 0.9344999999999999 Q 6.01347802734375 0.8744999999999998 6.07497802734375 0.7687499999999998 Q 6.13647802734375 0.6629999999999998 6.13647802734375 0.5324999999999999 Q 6.13647802734375 0.4019999999999999 6.07497802734375 0.2962499999999999 Q 6.01347802734375 0.1904999999999999 5.90697802734375 0.13049999999999984 Q 5.80047802734375 0.0704999999999999 5.66847802734375 0.0704999999999999 Q 5.53647802734375 0.0704999999999999 5.42922802734375 0.13049999999999984 Q 5.32197802734375 0.1904999999999999 5.26047802734375 0.2962499999999999 Q 5.19897802734375 0.4019999999999999 5.19897802734375 0.5324999999999999 Q 5.19897802734375 0.6629999999999998 5.26047802734375 0.7687499999999998 Q 5.32197802734375 0.8744999999999998 5.42922802734375 0.9344999999999999 Q 5.53647802734375 0.9944999999999999 5.66847802734375 0.9944999999999999 Q 5.80047802734375 0.9944999999999999 5.90697802734375 0.9344999999999999 M 7.3349970703125 0.00749999999999984 L 7.3349970703125 1.0574999999999999 L 7.2719970703125 1.0574999999999999 L 6.5564970703125 0.14549999999999985 L 6.5564970703125 1.0574999999999999 L 6.4799970703125 1.0574999999999999 L 6.4799970703125 0.00749999999999984 L 6.5444970703125 0.00749999999999984 L 7.2584970703125 0.9194999999999999 L 7.2584970703125 0.00749999999999984 L 7.3349970703125 0.00749999999999984 M 7.802285888671875 0.9494999999999999 Q 7.692035888671875 0.8339999999999999 7.692035888671875 0.6119999999999999 L 7.692035888671875 0.00749999999999984 L 7.768535888671875 0.00749999999999984 L 7.768535888671875 0.6089999999999999 Q 7.768535888671875 0.8024999999999999 7.857035888671875 0.8984999999999999 Q 7.945535888671875 0.9944999999999999 8.113535888671874 0.9944999999999999 Q 8.280035888671875 0.9944999999999999 8.368535888671875 0.8984999999999999 Q 8.457035888671875 0.8024999999999999 8.457035888671875 0.6089999999999999 L 8.457035888671875 0.00749999999999984 L 8.533535888671874 0.00749999999999984 L 8.533535888671874 0.6119999999999999 Q 8.533535888671874 0.8339999999999999 8.422535888671876 0.9494999999999999 Q 8.311535888671875 1.065 8.112035888671874 1.065 Q 7.912535888671875 1.065 7.802285888671875 0.9494999999999999 M 9.070614990234375 0.0764999999999999 L 8.692614990234375 0.0764999999999999 L 8.692614990234375 0.00749999999999984 L 9.525114990234375 0.00749999999999984 L 9.525114990234375 0.0764999999999999 L 9.147114990234375 0.0764999999999999 L 9.147114990234375 1.0574999999999999 L 9.070614990234375 1.0574999999999999 L 9.070614990234375 0.0764999999999999 M 10.443097412109376 1.0574999999999999 L 10.192597412109375 0.7064999999999999 Q 10.137097412109375 0.7139999999999999 10.090597412109375 0.7139999999999999 L 9.790597412109374 0.7139999999999999 L 9.790597412109374 1.0574999999999999 L 9.714097412109375 1.0574999999999999 L 9.714097412109375 0.00749999999999984 L 10.090597412109375 0.00749999999999984 Q 10.288597412109375 0.00749999999999984 10.401097412109374 0.10124999999999984 Q 10.513597412109375 0.19499999999999984 10.513597412109375 0.3614999999999998 Q 10.513597412109375 0.4859999999999999 10.449847412109374 0.5707499999999999 Q 10.386097412109375 0.6554999999999999 10.267597412109374 0.69 L 10.530097412109376 1.0574999999999999 L 10.443097412109376 1.0574999999999999 M 10.090597412109375 0.6464999999999999 Q 10.258597412109374 0.6464999999999999 10.347097412109376 0.5722499999999999 Q 10.435597412109376 0.4979999999999999 10.435597412109376 0.3614999999999998 Q 10.435597412109376 0.22499999999999987 10.347097412109376 0.15074999999999983 Q 10.258597412109374 0.0764999999999999 10.090597412109375 0.0764999999999999 L 9.790597412109374 0.0764999999999999 L 9.790597412109374 0.6464999999999999 L 10.090597412109375 0.6464999999999999 M 10.794053466796875 0.00749999999999984 L 10.870553466796874 0.00749999999999984 L 10.870553466796874 1.0574999999999999 L 10.794053466796875 1.0574999999999999 L 10.794053466796875 0.00749999999999984" fill="#382d5e" fill-rule="nonzero"></path></g><g></g><g clip-path="url(#SvgjsClipPath1002)"><g clip-path="url(#SvgjsClipPath100197277ef8-ae2b-4e9f-9fa0-f800270fe604)"><path d=" M 3.1386729145259347 -0.7970220201309619 C 3.1386729145259347 -0.49491007314733704 2.893762841378597 -0.25 2.5916508943949728 -0.25 C 2.2895389474113492 -0.25 2.0446288742640113 -0.49491007314733704 2.0446288742640113 -0.7970220201309619 C 2.0446288742640113 -1.0991339671145859 2.2895389474113492 -1.344044040261923 2.5916508943949728 -1.344044040261923 C 2.893762841378597 -1.344044040261923 3.1386729145259347 -1.0991339671145859 3.1386729145259347 -0.7970220201309619 Z" fill="#e37f7c" transform="matrix(1,0,0,1,0,0)" fill-rule="nonzero"></path></g><g clip-path="url(#SvgjsClipPath100197277ef8-ae2b-4e9f-9fa0-f800270fe604)"><path d=" M 6.596442007461597 -0.7970220201309619 C 6.596442007461597 -0.49491007314733704 6.35153193431426 -0.25 6.049419987330636 -0.25 C 5.747308040347011 -0.25 5.502397967199674 -0.49491007314733704 5.502397967199674 -0.7970220201309619 C 5.502397967199674 -1.0991339671145859 5.747308040347011 -1.344044040261923 6.049419987330636 -1.344044040261923 C 6.35153193431426 -1.344044040261923 6.596442007461597 -1.0991339671145859 6.596442007461597 -0.7970220201309619 Z" fill="#e37f7c" transform="matrix(1,0,0,1,0,0)" fill-rule="nonzero"></path></g><g clip-path="url(#SvgjsClipPath100197277ef8-ae2b-4e9f-9fa0-f800270fe604)"><path d=" M 5.28922026817805 -2.8698064395487735 C 6.955760393233897 -3.648776522137226 7.977404460243193 -4.736116861172054 7.795063786866206 -5.733627603763808 C 7.7803156441665955 -5.811390537998112 7.758863800239891 -5.887812731986996 7.730708255086093 -5.961553445485042 L 2.385176896600444 -5.961553445485042 C 2.308754702611559 -5.961553445485042 2.2457399110768654 -5.898538653950348 2.2457399110768654 -5.822116459961464 L 2.2457399110768654 -5.288501842284692 C 2.2457399110768654 -5.2442574141858636 2.185406600033009 -5.233531492222512 2.169317717087982 -5.273753699585082 L 1.60754755425741 -6.7217531646376285 C 1.5860957103307056 -6.77538277445439 1.5351475810047828 -6.810242020835284 1.4774957504517647 -6.810242020835284 L 0.4169702163253165 -6.810242020835284 C 0.2882591527650903 -6.810242020835284 0.18502215386782517 -6.7056642816926 0.18502215386782517 -6.5782939583777935 L 0.18502215386782517 -6.531368049788127 C 0.18502215386782517 -6.402656986227901 0.2895998930105093 -6.299419987330636 0.4169702163253165 -6.299419987330636 L 1.1221995854157234 -6.299419987330636 C 1.1892365976866743 -6.299419987330636 1.2455476879942735 -6.25249407874097 1.2589550904484637 -6.188138546960857 L 2.0969177438353537 -2.037206747143558 C 2.110325146289544 -1.971510475118027 2.1666362365971428 -1.92592530677378 2.233673248868094 -1.92592530677378 L 6.784145641820261 -1.92592530677378 C 6.837775251637021 -1.92592530677378 6.887382640717526 -1.9567623324184167 6.910175224889648 -2.0063697214989213 L 7.555071282936199 -3.3819692132988393 C 7.07374553483077 -3.070917476361626 6.498567969546008 -2.7866805443327936 5.855012651744877 -2.548028780648206 C 5.753116393093031 -2.5104880537764735 5.651220134441185 -2.4689251061684843 5.550664616034758 -2.4260214183150746 C 5.220842515661678 -2.2825622120552387 4.869568571361894 -2.190051135121326 4.600079782032671 -2.1176511618686993 C 4.14690957908104 -1.9943030592901492 3.7393245444736567 -2.0036882410080823 3.3746431977196827 -2.1431252265316605 C 3.0568877595553743 -2.265132588864791 2.853095242251683 -2.4850139891135115 2.761924905563189 -2.80276942727782 C 2.6707545688746954 -3.1205248654421287 2.7082952957464284 -3.493250653668618 2.871865605687549 -3.9209467919572853 C 3.015324811947384 -4.295013320429193 3.233865471950685 -4.60204283663015 3.5261468454520326 -4.839353860069317 C 3.8184282189533802 -5.076664883508484 4.227353993806183 -5.28984258253011 4.754264910255857 -5.476205476643353 C 5.1149240362735755 -5.603575799958161 5.451449837873751 -5.674635032965369 5.763842315056382 -5.6907239159103975 C 6.076234792239015 -5.705472058610007 6.3390198803411435 -5.67329429271995 6.549516098871931 -5.591509137749389 C 6.717108629549308 -5.527153605969277 6.835093771146183 -5.437324009526202 6.903471523662552 -5.323361088665585 C 6.971849276178924 -5.2093981678049674 6.9772122371606 -5.075324143263066 6.9182196663621625 -4.921139015039878 C 6.832412290655346 -4.695894653809482 6.662138279487128 -4.504168798714561 6.408738373102934 -4.345961449755116 C 6.155338466718739 -4.187754100795671 5.8147904443823055 -4.064405998217121 5.385753565848218 -3.9772578822648845 C 4.956716687314131 -3.8901097663126483 4.452598355036579 -3.8418431174775627 3.8707170885247217 -3.8311171955142114 L 3.8197689591987984 -3.697043170972309 C 3.7393245444736567 -3.4865469524415227 3.7272578822648867 -3.302865538819116 3.7862504530633236 -3.1446581898596704 C 3.8439022836163415 -2.987791581145646 3.9578652044769584 -2.8765101407758658 4.1254577351543364 -2.812154608995753 C 4.299753967058809 -2.7451175967248025 4.496842783135406 -2.7169620515710022 4.715383443138707 -2.7263472332889354 C 4.714042702893288 -2.7250064930435176 5.062635166702235 -2.7612064796698323 5.28922026817805 -2.8698064395487735 Z" fill="#e37f7c" transform="matrix(1,0,0,1,0,0)" fill-rule="nonzero"></path></g><g clip-path="url(#SvgjsClipPath100197277ef8-ae2b-4e9f-9fa0-f800270fe604)"><path d=" M 3.0099618509657096 -0.7970220201309619 C 3.0099618509657096 -0.49491007314733704 2.7650517778183716 -0.25 2.462939830834747 -0.25 C 2.160827883851123 -0.25 1.9159178107037853 -0.49491007314733704 1.9159178107037853 -0.7970220201309619 C 1.9159178107037853 -1.0991339671145859 2.160827883851123 -1.344044040261923 2.462939830834747 -1.344044040261923 C 2.7650517778183716 -1.344044040261923 3.0099618509657096 -1.0991339671145859 3.0099618509657096 -0.7970220201309619 Z" fill="#c84449" transform="matrix(1,0,0,1,0,0)" fill-rule="nonzero"></path></g><g clip-path="url(#SvgjsClipPath100197277ef8-ae2b-4e9f-9fa0-f800270fe604)"><path d=" M 6.4690716841467895 -0.7970220201309619 C 6.4690716841467895 -0.49491007314733704 6.224161610999452 -0.25 5.9220496640158276 -0.25 C 5.6199377170322045 -0.25 5.375027643884867 -0.49491007314733704 5.375027643884867 -0.7970220201309619 C 5.375027643884867 -1.0991339671145859 5.6199377170322045 -1.344044040261923 5.9220496640158276 -1.344044040261923 C 6.224161610999452 -1.344044040261923 6.4690716841467895 -1.0991339671145859 6.4690716841467895 -0.7970220201309619 Z" fill="#c84449" transform="matrix(1,0,0,1,0,0)" fill-rule="nonzero"></path></g><g clip-path="url(#SvgjsClipPath100197277ef8-ae2b-4e9f-9fa0-f800270fe604)"><path d=" M 5.105538854555642 -2.8698064395487735 C 6.772078979611489 -3.648776522137226 7.793723046620786 -4.736116861172054 7.611382373243798 -5.733627603763808 C 7.596634230544189 -5.811390537998112 7.5751823866174846 -5.887812731986996 7.547026841463686 -5.961553445485042 L 2.2014954829780375 -5.961553445485042 C 2.1250732889891535 -5.961553445485042 2.062058497454459 -5.898538653950348 2.062058497454459 -5.822116459961464 L 2.062058497454459 -5.288501842284692 C 2.062058497454459 -5.2442574141858636 2.0017251864106034 -5.233531492222512 1.985636303465575 -5.273753699585082 L 1.4225254003895844 -6.7217531646376285 C 1.40107355646288 -6.77538277445439 1.350125427136957 -6.810242020835284 1.2924735965839391 -6.810242020835284 L 0.23194806245749133 -6.810242020835284 C 0.10323699889726477 -6.810242020835284 0 -6.7056642816926 0 -6.5782939583777935 L 0 -6.531368049788127 C 0 -6.402656986227901 0.1045777391426838 -6.299419987330636 0.23194806245749133 -6.299419987330636 L 0.9371774315478978 -6.299419987330636 C 1.004214443818849 -6.299419987330636 1.060525534126448 -6.25249407874097 1.073932936580638 -6.188138546960857 L 1.9118955899675278 -2.037206747143558 C 1.925302992421718 -1.971510475118027 1.981614082729317 -1.92592530677378 2.048651095000268 -1.92592530677378 L 6.599123487952436 -1.92592530677378 C 6.652753097769197 -1.92592530677378 6.7023604868497015 -1.9567623324184167 6.725153071021824 -2.0063697214989213 L 7.370049129068374 -3.3819692132988393 C 6.888723380962945 -3.070917476361626 6.313545815678184 -2.7866805443327936 5.669990497877053 -2.548028780648206 C 5.568094239225205 -2.5104880537764735 5.46619798057336 -2.4689251061684843 5.365642462166933 -2.4260214183150746 C 5.035820361793853 -2.2825622120552387 4.684546417494069 -2.190051135121326 4.4150576281648455 -2.1176511618686993 C 3.9618874252132152 -1.9943030592901492 3.5543023906058324 -2.0036882410080823 3.189621043851858 -2.1431252265316605 C 2.8718656056875496 -2.265132588864791 2.668073088383858 -2.4850139891135115 2.5769027516953646 -2.80276942727782 C 2.4857324150068703 -3.1205248654421287 2.5232731418786036 -3.493250653668618 2.6868434518197244 -3.9209467919572853 C 2.83030265807956 -4.295013320429193 3.0488433180828607 -4.60204283663015 3.341124691584208 -4.839353860069317 C 3.633406065085556 -5.076664883508484 4.042331839938358 -5.28984258253011 4.569242756388033 -5.476205476643353 C 4.92990188240575 -5.603575799958161 5.266427684005927 -5.674635032965369 5.578820161188558 -5.6907239159103975 C 5.891212638371191 -5.705472058610007 6.153997726473319 -5.67329429271995 6.364493945004106 -5.591509137749389 C 6.532086475681484 -5.527153605969277 6.650071617278358 -5.437324009526202 6.718449369794728 -5.323361088665585 C 6.7868271223111 -5.2093981678049674 6.792190083292775 -5.075324143263066 6.733197512494338 -4.921139015039878 C 6.6473901367875206 -4.695894653809482 6.477116125619304 -4.504168798714561 6.223716219235108 -4.345961449755116 C 5.970316312850914 -4.187754100795671 5.629768290514481 -4.064405998217121 5.200731411980392 -3.9772578822648845 C 4.771694533446305 -3.8901097663126483 4.267576201168753 -3.8418431174775627 3.685694934656896 -3.8311171955142114 L 3.6347468053309737 -3.697043170972309 C 3.5543023906058324 -3.4865469524415227 3.5422357283970607 -3.302865538819116 3.601228299195498 -3.1446581898596704 C 3.6588801297485154 -2.987791581145646 3.772843050609133 -2.8765101407758658 3.940435581286511 -2.812154608995753 C 4.114731813190985 -2.7451175967248025 4.311820629267581 -2.7169620515710022 4.530361289270881 -2.7263472332889354 C 4.529020549025463 -2.7250064930435176 4.878953753079829 -2.7612064796698323 5.105538854555642 -2.8698064395487735 Z" fill="#c84449" transform="matrix(1,0,0,1,0,0)" fill-rule="nonzero"></path></g><g clip-path="url(#SvgjsClipPath100197277ef8-ae2b-4e9f-9fa0-f800270fe604)"><path d=" M 3.0099618509657096 -0.7970220201309619 C 3.0099618509657096 -0.49491007314733704 2.7650517778183716 -0.25 2.462939830834747 -0.25 C 2.160827883851123 -0.25 1.9159178107037853 -0.49491007314733704 1.9159178107037853 -0.7970220201309619 C 1.9159178107037853 -1.0991339671145859 2.160827883851123 -1.344044040261923 2.462939830834747 -1.344044040261923 C 2.7650517778183716 -1.344044040261923 3.0099618509657096 -1.0991339671145859 3.0099618509657096 -0.7970220201309619 Z" fill="#382d5e" transform="matrix(1,0,0,1,0,0)" fill-rule="nonzero"></path></g><g clip-path="url(#SvgjsClipPath100197277ef8-ae2b-4e9f-9fa0-f800270fe604)"><path d=" M 6.4690716841467895 -0.7970220201309619 C 6.4690716841467895 -0.49491007314733704 6.224161610999452 -0.25 5.9220496640158276 -0.25 C 5.6199377170322045 -0.25 5.375027643884867 -0.49491007314733704 5.375027643884867 -0.7970220201309619 C 5.375027643884867 -1.0991339671145859 5.6199377170322045 -1.344044040261923 5.9220496640158276 -1.344044040261923 C 6.224161610999452 -1.344044040261923 6.4690716841467895 -1.0991339671145859 6.4690716841467895 -0.7970220201309619 Z" fill="#382d5e" transform="matrix(1,0,0,1,0,0)" fill-rule="nonzero"></path></g><g clip-path="url(#SvgjsClipPath100197277ef8-ae2b-4e9f-9fa0-f800270fe604)"><path d=" M 7.5456861012182666 -5.961553445485042 L 6.959782613970153 -5.961553445485042 C 6.8431382126186975 -5.844909044133587 6.725153071021824 -5.73094612327297 6.604486448934111 -5.619664682903191 C 6.5696272025532165 -5.587486917013134 6.534767956172321 -5.5566498913684965 6.499908709791428 -5.525812865723859 C 6.597782747707017 -5.46950177541626 6.671523461205062 -5.401124022899889 6.719790110040147 -5.320679608174748 C 6.788167862556518 -5.206716687314131 6.793530823538194 -5.072642662772228 6.734538252739758 -4.918457534549041 C 6.64873087703294 -4.693213173318645 6.4784568658647235 -4.501487318223724 6.225056959480527 -4.343279969264279 C 5.971657053096333 -4.185072620304835 5.631109030759901 -4.061724517726285 5.202072152225812 -3.9745764017740486 C 4.7730352736917245 -3.887428285821812 4.268916941414172 -3.8391616369867263 3.687035674902315 -3.8284357150233745 L 3.6360875455763932 -3.6943616904814722 C 3.555643130851252 -3.4838654719506863 3.54357646864248 -3.30018405832828 3.602569039440917 -3.1419767093688344 C 3.660220869993935 -2.9851101006548086 3.7741837908545524 -2.87382866028503 3.9417763215319304 -2.8094731285049166 C 4.116072553436404 -2.742436116233965 4.313161369513 -2.714280571080165 4.531702029516301 -2.7236657527981 C 4.531702029516301 -2.7236657527981 4.880294493325247 -2.758524999178995 5.106879594801062 -2.868465699303354 C 6.773419719856908 -3.647435781891808 7.795063786866206 -4.734776120926636 7.612723113489217 -5.7322868635183895 C 7.595293490298771 -5.811390537998111 7.573841646372067 -5.887812731986996 7.5456861012182666 -5.961553445485042 Z" fill="#382d5e" transform="matrix(1,0,0,1,0,0)" fill-rule="nonzero"></path></g><g clip-path="url(#SvgjsClipPath100197277ef8-ae2b-4e9f-9fa0-f800270fe604)"><path d=" M 5.365642462166933 -2.4233399378242373 C 5.035820361793853 -2.2798807315644014 4.684546417494069 -2.187369654630489 4.4150576281648455 -2.114969681377862 C 3.9618874252132152 -1.991621578799312 3.5543023906058324 -2.001006760517245 3.189621043851858 -2.140443746040823 C 2.8718656056875496 -2.262451108373954 2.668073088383858 -2.482332508622674 2.5769027516953646 -2.8000879467869826 C 2.5219324016331846 -2.9904730616364845 2.51388796016067 -3.2023100204126895 2.5514286870324034 -3.4329173426247617 C 2.26719175500357 -3.321635902254983 1.9816140827293178 -3.2157174228668803 1.6946956702096467 -3.1138211642150346 L 1.9118955899675292 -2.037206747143558 C 1.9253029924217195 -1.9715104751180261 1.9816140827293178 -1.9259253067737783 2.048651095000269 -1.9259253067737783 L 6.599123487952436 -1.9259253067737783 C 6.652753097769197 -1.9259253067737783 6.7023604868497015 -1.9567623324184167 6.725153071021824 -2.0063697214989196 L 7.370049129068374 -3.3819692132988393 C 6.888723380962945 -3.070917476361626 6.313545815678184 -2.7866805443327936 5.669990497877053 -2.548028780648206 C 5.5667534989797876 -2.5078065732856363 5.46619798057336 -2.466243625677645 5.365642462166933 -2.4233399378242373 Z" fill="#382d5e" transform="matrix(1,0,0,1,0,0)" fill-rule="nonzero"></path></g><g clip-path="url(#SvgjsClipPath100197277ef8-ae2b-4e9f-9fa0-f800270fe604)"><path d=" M 5.699486783276272 -4.643605784238142 C 5.873783015180744 -4.770976107552949 5.975679273832592 -4.874213106450213 6.005175559231808 -4.953316780929936 C 6.037353325121864 -5.035101935900496 6.014560740949742 -5.091413026208095 5.939479287206277 -5.119568571361895 C 5.875123755426164 -5.143701895779437 5.754457133338453 -5.143701895779437 5.578820161188559 -5.116887090871057 C 5.403183189038668 -5.090072285962677 5.215479554680003 -5.0391241566367535 5.017049998357989 -4.9640427028932885 C 4.818620442035973 -4.888961249149823 4.6255538466956345 -4.784383510007139 4.439190952582389 -4.651650225710656 C 4.252828058469145 -4.518916941414172 4.101324410736795 -4.354005891227633 3.9846800093853405 -4.156917075151036 C 4.353383576875571 -4.158257815396455 4.688568638230328 -4.20786520447696 4.9875537129587695 -4.305739242392548 C 5.28922026817805 -4.403613280308136 5.526531291617216 -4.516235460923333 5.699486783276272 -4.643605784238142 Z" fill="#e37f7c" transform="matrix(1,0,0,1,0,0)" fill-rule="nonzero"></path></g><g clip-path="url(#SvgjsClipPath100197277ef8-ae2b-4e9f-9fa0-f800270fe604)"><path d=" M 5.586864602661072 -4.643605784238142 C 5.761160834565545 -4.770976107552949 5.863057093217392 -4.874213106450213 5.8925533786166095 -4.953316780929936 C 5.924731144506665 -5.035101935900496 5.901938560334543 -5.091413026208095 5.826857106591078 -5.119568571361895 C 5.7625015748109645 -5.143701895779437 5.6418349527232525 -5.143701895779437 5.46619798057336 -5.116887090871057 C 5.290561008423468 -5.090072285962677 5.102857374064805 -5.0391241566367535 4.90442781774279 -4.9640427028932885 C 4.705998261420774 -4.888961249149823 4.512931666080435 -4.784383510007139 4.32656877196719 -4.651650225710656 C 4.140205877853946 -4.518916941414172 3.988702230121596 -4.354005891227633 3.8720578287701413 -4.156917075151036 C 4.240761396260372 -4.158257815396455 4.575946457615129 -4.20786520447696 4.87493153234357 -4.305739242392548 C 5.175257347317433 -4.403613280308136 5.412568370756599 -4.516235460923333 5.586864602661072 -4.643605784238142 Z" fill="#c84449" transform="matrix(1,0,0,1,0,0)" fill-rule="nonzero"></path></g></g></g><defs><clipPath id="SvgjsClipPath1002"><path d=" M 0 -6.810242020835284 h 7.816024486063534 v 6.560242020835284 h -7.816024486063534 Z"></path></clipPath><clipPath id="SvgjsClipPath100197277ef8-ae2b-4e9f-9fa0-f800270fe604"><path d=" M 0 -6.810242020835284 L 7.816024486063534 -6.810242020835284 L 7.816024486063534 -0.25 L 0 -0.25 Z"></path></clipPath></defs></svg>